:FULLY-SPECIFIED
:FORCE-ALL-JOINTS-BE-3DOF
:DEGREES
204
root -2.90033 16.3091 -36.1129 3.7832 0.646692 -2.93596
lfemur -23.9482 6.70562 -8.21014
ltibia 48.6254 -0 0
lfoot -23.796 0.368959 0.000144262
ltoes -9.77602 0 0
rfemur -23.8156 -7.48685 14.5907
rtibia 50.6923 -0 0
rfoot -27.5935 1.88274 0.000416245
rtoes -8.34552 0 0
lowerback 7.29953 1.94784 -1.69821
upperback -3.76634 2.53149 1.31599
thorax -8.21056 1.37118 1.97961
lowerneck -3.36742 -3.89976 -6.58543
upperneck 6.88593 -5.26827 6.06024
head 3.23667 -2.59453 2.98086
lclavicle 9.37083e-15 8.94531e-16 0
lhumerus -26.5764 -1.80314 88.7513
lradius 24.2623 0 0
lwrist -31.4011 0 0
lhand -28.2389 30.1487 0
lfingers 7.12502 0 0
lthumb -1.61668 60.1223 0
rclavicle 9.37083e-15 8.94531e-16 0
rhumerus -32.2358 2.05261 -79.9556
rradius 30.4458 0 0
rwrist 3.13154 0 0
rhand -19.7608 -27.0687 0
rfingers 7.12502 0 0
rthumb 6.57076 -56.9468 0
205
root -2.90076 16.3075 -36.1111 3.77155 0.653511 -2.90154
lfemur -23.9552 6.71066 -8.20724
ltibia 48.6636 -0 0
lfoot -23.8185 0.36416 0.000135776
ltoes -9.78304 0 0
rfemur -23.8157 -7.49826 14.5894
rtibia 50.7288 -0 0
rfoot -27.6165 1.87346 0.000418104
rtoes -8.36586 0 0
lowerback 7.29923 1.95169 -1.72821
upperback -3.75822 2.53231 1.30223
thorax -8.20242 1.37263 1.98192
lowerneck -3.42443 -3.90966 -6.55163
upperneck 6.92512 -5.27961 6.02983
head 3.25922 -2.59935 2.96279
lclavicle -9.12856e-15 -6.95746e-15 0
lhumerus -26.5582 -1.83061 88.7652
lradius 24.2607 0 0
lwrist -31.4356 0 0
lhand -28.2606 30.072 0
lfingers 7.12502 0 0
lthumb -1.63758 60.0454 0
rclavicle -9.12856e-15 -6.95746e-15 0
rhumerus -32.2187 2.00814 -79.9437
rradius 30.4364 0 0
rwrist 3.14936 0 0
rhand -19.8187 -27.008 0
rfingers 7.12502 0 0
rthumb 6.51481 -56.8877 0
206
root -2.90138 16.305 -36.1106 3.76868 0.66911 -2.9246
lfemur -23.9621 6.71569 -8.20434
ltibia 48.7017 -0 0
lfoot -23.841 0.35936 0.000125404
ltoes -9.79006 0 0
rfemur -23.8157 -7.50966 14.5882
rtibia 50.7653 -0 0
rfoot -27.6394 1.86419 0.000416245
rtoes -8.38619 0 0
lowerback 7.29131 1.95374 -1.69565
upperback -3.74773 2.53866 1.30361
thorax -8.18527 1.37379 1.96455
lowerneck -3.43602 -3.91994 -6.54011
upperneck 6.9053 -5.29236 6.02499
head 3.25484 -2.60532 2.95808
lclavicle -1.30647e-14 4.96962e-16 0
lhumerus -26.5489 -1.89002 88.794
lradius 24.3179 0 0
lwrist -31.374 0 0
lhand -28.2296 30.1145 0
lfingers 7.12502 0 0
lthumb -1.6077 60.0882 0
rclavicle -1.30647e-14 4.96962e-16 0
rhumerus -32.2196 2.00376 -79.9386
rradius 30.4557 0 0
rwrist 3.12415 0 0
rhand -20.0827 -26.8213 0
rfingers 7.12502 0 0
rthumb 6.25995 -56.7088 0
207
root -2.90215 16.303 -36.1086 3.76247 0.674298 -2.90984
lfemur -23.9691 6.72073 -8.20144
ltibia 48.7399 -0 0
lfoot -23.8635 0.354561 0.000113146
ltoes -9.79708 0 0
rfemur -23.8158 -7.52107 14.5869
rtibia 50.8018 -0 0
rfoot -27.6624 1.85491 0.000410671
rtoes -8.40653 0 0
lowerback 7.27704 1.94759 -1.7196
upperback -3.74702 2.52857 1.31085
thorax -8.17719 1.37036 1.98757
lowerneck -3.44052 -3.89992 -6.56686
upperneck 6.92316 -5.26432 6.02696
head 3.261 -2.59202 2.9652
lclavicle -7.36435e-15 6.26172e-15 0
lhumerus -26.5541 -1.86373 88.8072
lradius 24.3196 0 0
lwrist -31.3826 0 0
lhand -28.2372 30.0722 0
lfingers 7.12502 0 0
lthumb -1.61501 60.0458 0
rclavicle -7.36435e-15 6.26172e-15 0
rhumerus -32.2245 2.03444 -79.9285
rradius 30.4408 0 0
rwrist 3.13092 0 0
rhand -20.1873 -26.6924 0
rfingers 7.12502 0 0
rthumb 6.15899 -56.5829 0
208
root -2.90299 16.3002 -36.1078 3.75868 0.677291 -2.90975
lfemur -23.9761 6.72576 -8.19855
ltibia 48.778 -0 0
lfoot -23.886 0.349761 9.9003e-05
ltoes -9.8041 0 0
rfemur -23.8159 -7.53247 14.5856
rtibia 50.8383 -0 0
rfoot -27.6853 1.84563 0.000401379
rtoes -8.42686 0 0
lowerback 7.25548 1.95376 -1.71619
upperback -3.74281 2.53732 1.30924
thorax -8.16028 1.37427 1.98339
lowerneck -3.38995 -3.9138 -6.5566
upperneck 6.88388 -5.28408 6.01499
head 3.23828 -2.60267 2.95858
lclavicle 2.4105e-14 8.54774e-15 0
lhumerus -26.5653 -1.92384 88.8392
lradius 24.3607 0 0
lwrist -31.3094 0 0
lhand -28.2068 30.0482 0
lfingers 7.12502 0 0
lthumb -1.58568 60.022 0
rclavicle 2.4105e-14 8.54774e-15 0
rhumerus -32.2266 2.01248 -79.9143
rradius 30.432 0 0
rwrist 3.14831 0 0
rhand -20.113 -26.7991 0
rfingers 7.12502 0 0
rthumb 6.23076 -56.6875 0
